<?xml version="1.0" encoding="UTF-8" standalone="no"?>
<!DOCTYPE svg PUBLIC "-//W3C//DTD SVG 20010904//EN"
              "http://www.w3.org/TR/2001/REC-SVG-20010904/DTD/svg10.dtd">

<svg xmlns="http://www.w3.org/2000/svg"
     width="119.048mm" height="119.048mm"
     viewBox="0 0 450 450">
  <path id="Selection #1"
        fill="none" stroke="black" stroke-width="1"
        d="M 168.21,73.94
           C 168.21,73.94 153.44,71.75 153.44,71.75
             153.44,71.75 121.70,71.75 121.70,71.75
             119.58,75.76 117.19,74.22 114.06,76.48
             110.34,79.18 110.76,81.92 110.76,85.96
             110.76,85.96 99.82,87.78 99.82,87.78
             99.82,87.78 93.80,90.18 93.80,90.18
             93.80,90.18 87.23,91.85 87.23,91.85
             87.23,91.85 83.40,93.00 83.40,93.00
             83.40,93.00 77.38,93.91 77.38,93.91
             74.73,94.58 74.90,95.14 70.81,95.84
             67.08,96.48 67.41,96.73 64.25,97.70
             64.25,97.70 60.42,98.54 60.42,98.54
             60.42,98.54 52.21,100.94 52.21,100.94
             49.75,101.51 48.12,101.04 44.00,102.22
             36.26,104.45 23.53,113.93 19.00,120.40
             16.92,123.36 12.83,130.82 18.29,132.66
             19.27,132.99 20.54,132.96 21.57,132.97
             21.57,132.97 35.79,132.97 35.79,132.97
             41.05,133.03 46.37,134.10 51.66,133.35
             51.66,133.35 67.53,129.30 67.53,129.30
             70.48,128.88 73.31,128.61 76.29,128.59
             76.29,128.59 93.25,126.84 93.25,126.84
             93.25,126.84 97.08,125.87 97.08,125.87
             97.08,125.87 102.00,125.87 102.00,125.87
             106.40,125.33 109.67,123.74 115.14,123.68
             115.14,123.68 143.04,123.68 143.04,123.68
             147.53,123.75 148.99,126.36 150.70,130.23
             150.70,130.23 137.02,134.83 137.02,134.83
             137.02,134.83 131.55,135.43 131.55,135.43
             131.55,135.43 120.06,139.23 120.06,139.23
             120.06,139.23 104.74,142.74 104.74,142.74
             104.74,142.74 96.51,145.88 96.51,145.88
             96.51,145.88 87.78,148.50 87.78,148.50
             87.78,148.50 82.85,149.88 82.85,149.88
             82.85,149.88 76.83,152.46 76.83,152.46
             75.38,152.96 72.24,153.66 71.24,154.59
             69.33,156.37 69.20,158.97 69.17,161.39
             69.17,161.39 77.93,161.39 77.93,161.39
             75.87,165.83 76.31,166.52 76.29,171.23
             76.26,177.27 74.71,178.35 74.62,183.25
             74.62,183.25 74.62,191.45 74.62,191.45
             74.62,191.45 74.10,196.37 74.10,196.37
             73.96,202.67 77.03,208.24 83.95,208.39
             85.31,208.41 86.72,208.47 87.91,207.71
             91.30,205.55 93.36,198.41 94.34,194.73
             94.74,195.99 95.01,197.38 95.67,198.54
             96.44,199.87 97.62,200.87 98.72,201.92
             101.62,204.68 105.64,207.55 109.43,204.20
             112.11,201.83 112.61,195.96 113.50,192.54
             115.63,197.07 113.93,198.43 118.97,200.20
             116.24,202.00 116.77,202.42 114.56,204.09
             114.56,204.09 105.40,210.50 105.40,210.50
             105.40,210.50 97.35,218.35 97.35,218.35
             97.35,218.35 93.25,221.62 93.25,221.62
             93.25,221.62 84.66,229.99 84.66,229.99
             82.77,232.17 80.37,237.41 78.89,240.10
             76.51,244.40 73.77,247.85 72.30,252.67
             69.46,261.94 70.25,274.06 70.27,283.82
             70.28,289.32 70.93,287.89 71.31,291.47
             72.08,298.91 72.28,302.28 74.95,309.51
             74.95,309.51 76.39,312.79 76.39,312.79
             76.39,312.79 77.44,316.30 77.44,316.30
             77.44,316.30 80.41,320.99 80.41,320.99
             80.41,320.99 85.89,329.48 85.89,329.48
             85.89,329.48 97.13,336.21 97.13,336.21
             97.13,336.21 108.57,342.46 108.57,342.46
             108.57,342.46 113.50,344.00 113.50,344.00
             119.00,346.45 127.25,350.98 133.19,351.05
             133.19,351.05 136.48,351.05 136.48,351.05
             140.22,351.10 139.76,351.65 142.50,352.03
             145.31,352.43 149.83,351.86 151.63,354.59
             153.38,357.27 151.72,361.86 151.35,364.72
             151.35,364.72 150.61,373.46 150.61,373.46
             150.61,373.46 149.61,389.86 149.61,389.86
             149.61,389.86 135.38,391.89 135.38,391.89
             131.92,392.34 128.34,392.38 124.99,393.55
             122.14,394.56 118.80,397.87 120.39,401.17
             121.15,402.75 124.99,403.09 126.63,403.46
             131.45,404.54 141.49,404.07 146.87,404.07
             143.59,408.45 143.59,406.33 143.59,412.81
             146.12,412.81 149.41,413.11 151.66,411.88
             153.45,410.90 153.16,409.99 156.20,408.48
             159.37,406.90 162.69,406.02 166.03,404.89
             168.17,404.16 170.55,403.95 171.87,401.77
             172.71,400.38 172.59,398.53 172.59,396.96
             172.59,396.96 172.59,370.73 172.59,370.73
             172.59,370.73 170.40,353.24 170.40,353.24
             170.40,353.24 170.40,348.32 170.40,348.32
             175.85,350.74 176.51,350.35 181.89,351.23
             187.74,352.18 190.60,352.72 196.67,352.69
             200.69,352.67 209.01,350.27 213.08,348.97
             213.08,348.97 218.01,347.37 218.01,347.37
             218.01,347.37 222.93,347.07 222.93,347.07
             222.93,347.07 228.95,345.79 228.95,345.79
             228.95,345.79 233.24,345.46 233.24,345.46
             233.24,345.46 235.61,344.75 235.61,344.75
             238.94,343.94 238.64,345.28 242.09,342.85
             242.88,346.96 245.00,347.96 247.88,350.66
             249.05,351.76 249.96,352.74 251.39,353.56
             251.39,353.56 255.77,355.21 255.77,355.21
             264.92,358.73 266.93,358.75 276.56,358.70
             278.71,358.69 279.37,358.67 281.48,358.16
             281.48,358.16 281.48,381.66 281.48,381.66
             281.50,389.48 284.56,392.62 281.88,401.33
             280.92,404.45 278.00,404.97 275.51,406.39
             272.50,408.12 269.73,410.92 269.45,414.45
             269.45,414.45 287.50,414.45 287.50,414.45
             287.50,414.45 298.99,411.17 298.99,411.17
             298.99,411.17 298.99,415.00 298.99,415.00
             307.69,414.97 311.70,409.97 317.61,404.85
             321.06,401.85 324.07,400.26 324.16,395.32
             324.16,395.32 324.16,391.50 324.16,391.50
             324.14,386.02 323.10,387.68 323.07,382.21
             323.07,382.21 324.17,369.09 324.17,369.09
             324.17,369.09 324.17,356.52 324.17,356.52
             324.17,356.52 320.34,334.11 320.34,334.11
             320.31,331.50 320.81,329.74 319.24,327.55
             323.01,326.41 325.52,323.08 328.23,320.37
             328.23,320.37 333.08,315.96 333.08,315.96
             333.08,315.96 341.72,306.78 341.72,306.78
             341.72,306.78 348.37,298.58 348.37,298.58
             349.57,296.77 349.66,295.58 350.41,294.21
             350.41,294.21 352.60,290.95 352.60,290.95
             352.60,290.95 355.40,286.05 355.40,286.05
             355.40,286.05 360.30,279.31 360.30,279.31
             360.30,279.31 363.52,273.48 363.52,273.48
             363.52,273.48 371.56,261.96 371.56,261.96
             371.56,261.96 378.02,250.48 378.02,250.48
             384.51,239.19 391.31,230.27 391.47,216.59
             391.49,214.75 391.80,208.30 390.83,207.07
             389.97,205.98 387.80,206.21 386.55,206.21
             384.21,206.20 378.64,205.95 376.70,206.65
             371.98,208.35 369.19,213.29 365.75,216.59
             365.75,216.59 366.30,210.03 366.30,210.03
             366.30,210.03 371.77,209.49 371.77,209.49
             372.03,208.63 372.03,208.21 372.64,207.45
             374.26,205.43 383.35,201.02 386.00,199.41
             388.19,198.08 396.33,192.40 397.94,190.81
             397.94,190.81 403.49,184.80 403.49,184.80
             403.49,184.80 406.83,180.54 406.83,180.54
             409.26,177.93 413.80,172.42 414.86,169.04
             415.02,167.97 415.02,166.34 414.86,165.22
             414.73,156.33 402.55,158.04 396.40,158.11
             394.12,158.14 392.46,158.32 390.38,159.33
             387.86,160.56 385.78,162.72 383.81,164.67
             383.81,164.67 383.81,154.83 383.81,154.83
             383.80,153.04 383.89,150.45 382.44,149.14
             378.72,145.79 373.75,151.41 371.22,153.48
             361.95,161.08 363.05,162.69 356.27,170.68
             356.27,170.68 345.51,180.52 345.51,180.52
             345.51,180.52 352.11,165.76 352.11,165.76
             352.11,165.76 356.19,159.75 356.19,159.75
             358.09,156.55 360.23,150.38 360.28,146.63
             360.28,146.63 360.28,135.15 360.28,135.15
             357.70,135.15 352.89,135.30 350.52,136.15
             345.97,137.78 340.65,142.73 337.30,146.08
             335.49,147.89 332.66,150.51 331.40,152.64
             331.40,152.64 326.10,166.31 326.10,166.31
             326.10,166.31 323.28,171.77 323.28,171.77
             322.53,173.36 320.09,181.04 319.84,182.71
             319.84,182.71 319.84,188.72 319.84,188.72
             313.90,181.91 307.87,180.24 300.09,176.60
             300.09,176.60 293.00,172.74 293.00,172.74
             290.23,171.30 284.04,168.69 283.98,164.83
             283.96,163.36 287.64,160.75 288.80,159.73
             293.07,155.97 296.71,151.25 299.66,146.40
             304.96,137.71 306.12,126.55 306.11,116.57
             306.10,112.67 305.26,108.89 304.40,105.09
             303.54,101.29 301.95,94.57 299.56,91.56
             297.39,88.82 291.38,85.94 288.05,84.87
             291.15,83.99 291.56,84.60 294.07,84.18
             294.07,84.18 304.39,80.81 304.39,80.81
             308.14,78.39 304.07,72.36 302.67,71.33
             301.73,70.63 300.65,70.39 299.54,70.11
             302.40,68.68 306.00,66.74 307.88,64.08
             310.27,60.67 309.92,54.91 306.01,52.72
             304.15,51.67 296.59,52.07 294.07,52.07
             295.35,51.58 299.30,50.50 299.99,49.58
             300.55,48.84 300.65,47.51 300.60,46.61
             300.34,42.00 293.85,41.15 290.24,41.14
             282.48,41.13 274.24,40.28 266.63,42.24
             268.06,39.46 269.87,32.39 266.63,30.31
             265.53,29.66 264.06,29.68 262.88,29.67
             253.75,29.54 250.09,32.96 242.09,36.29
             238.77,37.67 238.08,37.01 235.52,37.75
             235.52,37.75 229.50,40.05 229.50,40.05
             229.50,40.05 233.54,35.66 233.54,35.66
             233.54,35.66 237.51,30.21 237.51,30.21
             238.47,28.91 239.96,27.32 240.31,25.75
             240.77,23.62 239.79,17.81 237.63,16.99
             235.97,16.15 232.40,16.72 230.60,16.99
             230.60,16.99 226.22,16.99 226.22,16.99
             223.04,17.44 217.00,18.89 214.18,20.40
             205.14,25.22 197.99,35.22 191.92,43.23
             191.92,43.23 187.73,47.88 187.73,47.88
             187.73,47.88 180.44,56.90 180.44,56.90
             176.89,60.96 169.19,68.84 168.21,73.94 Z
           M 237.71,23.65
           C 232.73,32.30 225.28,39.28 217.46,45.32
             215.56,46.78 208.99,50.26 208.17,51.64
             207.66,52.51 207.69,53.31 207.61,54.26
             213.58,53.72 215.32,50.50 220.20,48.15
             220.20,48.15 224.34,46.53 224.34,46.53
             224.34,46.53 228.95,44.05 228.95,44.05
             228.95,44.05 233.88,42.22 233.88,42.22
             233.88,42.22 237.16,40.73 237.16,40.73
             240.06,39.75 241.51,40.38 244.82,38.86
             248.82,37.03 258.27,32.20 262.32,32.48
             266.52,32.77 266.55,37.80 261.78,40.89
             255.34,45.07 256.56,43.28 250.29,44.71
             245.93,45.71 245.63,46.49 240.44,46.61
             240.44,46.61 240.44,49.34 240.44,49.34
             240.44,49.34 248.65,49.34 248.65,49.34
             255.03,49.33 255.86,47.28 261.24,45.96
             267.13,44.50 266.41,45.33 269.45,44.83
             272.41,44.34 271.60,43.90 275.47,43.88
             275.47,43.88 291.88,44.16 291.88,44.16
             293.82,44.60 296.13,45.69 297.90,46.61
             297.90,46.61 292.43,49.09 292.43,49.09
             292.43,49.09 287.50,51.26 287.50,51.26
             287.50,51.26 276.01,52.07 276.01,52.07
             276.01,52.07 276.01,54.81 276.01,54.81
             276.01,54.81 299.54,54.81 299.54,54.81
             300.66,54.81 302.25,54.76 303.29,55.21
             307.31,56.97 305.99,61.33 303.29,63.55
             297.86,68.06 295.16,67.38 288.60,67.38
             288.60,67.38 288.60,70.11 288.60,70.11
             291.97,70.39 297.31,71.83 299.94,73.99
             300.81,74.71 302.46,76.86 301.66,78.03
             301.21,78.69 298.26,79.46 297.35,79.78
             292.00,81.71 292.30,81.03 287.50,81.70
             284.72,82.09 285.30,82.59 281.48,82.68
             281.84,86.95 284.52,86.96 288.05,88.37
             291.01,89.55 296.17,92.55 297.76,95.27
             299.66,98.54 301.09,104.61 301.84,108.37
             302.77,113.03 303.43,114.98 303.37,119.85
             303.32,123.95 301.14,135.22 299.64,138.98
             296.55,146.68 287.66,157.36 280.39,161.39
             280.39,161.39 285.92,172.57 285.92,172.57
             285.92,172.57 297.90,179.41 297.90,179.41
             297.90,179.41 302.28,181.08 302.28,181.08
             302.28,181.08 314.32,188.20 314.32,188.20
             314.32,188.20 318.15,192.00 318.15,192.00
             319.23,191.39 321.34,190.59 321.96,189.64
             322.73,188.47 322.45,185.87 322.70,184.35
             322.70,184.35 326.06,173.96 326.06,173.96
             326.06,173.96 330.65,164.12 330.65,164.12
             331.53,161.77 332.93,156.86 334.13,154.88
             335.36,152.85 338.16,150.28 339.88,148.59
             343.82,144.72 347.91,140.70 353.26,138.80
             353.26,138.80 357.54,137.89 357.54,137.89
             357.54,140.27 357.71,145.68 357.26,147.72
             356.92,149.30 356.28,150.62 355.71,152.10
             352.38,160.78 351.64,158.98 348.48,165.22
             348.48,165.22 343.17,177.22 343.17,177.22
             340.80,181.78 336.54,188.13 336.20,193.09
             336.20,193.09 338.30,192.53 338.30,192.53
             338.30,192.53 348.24,182.75 348.24,182.75
             348.24,182.75 358.54,173.41 358.54,173.41
             358.54,173.41 368.86,160.22 368.86,160.22
             368.86,160.22 379.98,151.00 379.98,151.00
             381.24,154.04 381.68,162.57 380.80,165.76
             380.45,167.06 379.56,168.52 378.68,169.53
             377.56,170.81 376.37,171.49 375.05,172.50
             370.99,175.63 363.24,181.01 361.68,185.98
             361.35,187.05 361.39,188.16 361.37,189.26
             362.75,189.14 363.89,189.04 365.16,188.41
             368.80,186.59 375.32,179.08 377.99,175.76
             382.05,170.68 382.03,171.56 385.77,167.79
             388.28,165.26 390.16,162.90 393.66,161.61
             396.41,160.59 400.01,160.81 402.96,160.84
             404.35,160.86 405.43,160.89 406.79,161.22
             414.03,162.96 412.47,166.72 409.42,171.32
             407.12,174.77 407.68,174.47 404.62,177.79
             401.25,181.43 398.47,185.73 394.71,189.01
             389.94,193.16 384.30,196.08 378.89,199.22
             378.89,199.22 366.30,206.75 366.30,206.75
             365.10,205.12 363.96,203.70 361.90,203.16
             361.90,203.16 358.24,202.60 358.24,202.60
             356.33,201.74 357.05,199.98 352.62,197.64
             345.89,194.10 341.21,199.20 335.11,201.29
             332.07,191.65 323.28,191.76 315.96,196.79
             313.37,198.57 307.49,206.98 306.11,210.03
             303.18,204.63 305.43,206.04 300.24,200.65
             299.02,199.39 298.37,198.48 296.80,197.54
             293.12,195.35 284.57,194.63 280.39,195.48
             278.21,195.93 273.26,198.56 271.96,200.31
             270.81,201.85 270.58,205.90 270.54,207.85
             274.97,207.09 272.86,205.00 274.38,202.59
             275.46,200.88 280.04,198.72 282.03,198.26
             285.70,197.42 291.88,198.53 295.12,200.38
             298.90,202.55 303.66,209.27 303.07,213.86
             303.07,213.86 297.61,224.25 297.61,224.25
             296.40,227.00 297.14,228.01 296.20,230.80
             296.20,230.80 294.13,235.72 294.13,235.72
             294.13,235.72 293.20,241.19 293.20,241.19
             292.31,244.86 291.44,245.07 291.33,249.39
             296.74,248.95 295.79,243.71 296.36,239.55
             296.71,237.01 298.17,234.85 298.94,232.44
             298.94,232.44 299.92,226.98 299.92,226.98
             300.31,225.71 302.80,221.10 303.58,219.87
             303.58,219.87 307.79,213.31 307.79,213.31
             307.79,213.31 310.61,208.39 310.61,208.39
             310.61,208.39 314.31,203.71 314.31,203.71
             316.72,200.56 316.38,199.69 320.38,197.25
             326.71,193.41 332.80,199.75 331.70,203.48
             331.19,205.20 324.20,213.07 322.48,215.50
             320.31,218.56 314.30,229.01 312.77,232.44
             312.77,232.44 309.84,240.10 309.84,240.10
             309.84,240.10 303.27,252.28 303.27,252.28
             302.87,253.26 302.90,253.84 302.82,254.85
             308.11,253.99 309.13,247.33 311.59,243.38
             314.56,238.58 313.81,237.18 316.03,233.01
             322.19,221.45 324.65,217.38 333.29,207.32
             335.82,204.36 339.82,202.69 343.32,201.11
             344.86,200.42 346.49,199.36 348.24,199.53
             350.72,199.75 352.81,201.63 354.26,203.48
             347.52,208.30 343.43,215.08 338.53,221.51
             338.53,221.51 334.22,226.43 334.22,226.43
             334.22,226.43 329.06,234.08 329.06,234.08
             329.06,234.08 323.55,244.47 323.55,244.47
             323.55,244.47 321.29,251.03 321.29,251.03
             317.89,259.56 314.52,269.73 313.77,278.90
             317.65,278.25 317.26,275.72 317.83,272.34
             318.45,268.64 320.43,262.23 321.80,258.68
             321.80,258.68 325.13,249.93 325.13,249.93
             325.13,249.93 326.29,246.11 326.29,246.11
             326.29,246.11 331.47,236.27 331.47,236.27
             334.86,230.47 339.41,225.58 343.52,220.31
             346.51,216.48 350.81,209.99 354.65,207.23
             357.68,205.05 363.43,205.31 363.49,210.06
             363.54,214.46 360.19,223.73 357.86,227.52
             353.39,234.80 350.54,241.54 348.83,249.93
             348.83,249.93 345.76,258.68 345.76,258.68
             345.76,258.68 342.72,269.61 342.72,269.61
             341.52,273.52 340.81,273.00 340.58,277.81
             345.67,276.95 345.94,271.56 346.88,267.42
             346.88,267.42 348.65,261.41 348.65,261.41
             348.65,261.41 352.65,249.93 352.65,249.93
             352.65,249.93 354.96,245.56 354.96,245.56
             354.96,245.56 356.33,240.64 356.33,240.64
             356.33,240.64 359.12,234.08 359.12,234.08
             362.07,227.76 366.34,222.08 370.53,216.57
             372.40,214.11 375.94,210.45 378.89,209.39
             380.48,208.81 387.08,208.44 388.18,209.81
             388.89,210.72 388.75,213.25 388.73,214.41
             388.57,228.48 381.11,237.70 374.67,249.39
             374.67,249.39 368.82,259.77 368.82,259.77
             368.82,259.77 361.49,270.18 361.49,270.18
             361.49,270.18 357.62,276.72 357.62,276.72
             357.62,276.72 352.66,283.82 352.66,283.82
             352.66,283.82 349.86,288.74 349.86,288.74
             349.86,288.74 347.67,292.00 347.67,292.00
             346.53,294.05 346.60,295.00 344.74,297.49
             338.27,306.13 330.32,313.22 322.76,320.83
             322.76,320.83 312.83,329.34 312.83,329.34
             307.55,334.62 303.47,339.76 297.35,344.42
             297.35,344.42 287.28,352.26 287.28,352.26
             286.48,353.34 286.51,354.17 286.41,355.42
             290.20,354.50 293.35,351.72 296.31,349.30
             296.31,349.30 301.49,345.50 301.49,345.50
             301.49,345.50 307.45,339.97 307.45,339.97
             310.89,336.44 313.35,332.56 317.60,329.73
             317.60,334.68 317.35,337.91 318.39,342.85
             319.57,348.40 321.42,353.48 321.38,359.25
             321.38,359.25 321.38,369.09 321.38,369.09
             321.38,369.09 320.41,376.74 320.41,376.74
             320.41,376.74 320.41,387.67 320.41,387.67
             320.91,390.33 322.13,393.08 321.10,395.87
             319.88,399.18 314.60,402.08 312.13,405.16
             312.13,405.16 311.58,402.43 311.58,402.43
             307.95,402.84 308.05,403.68 305.01,404.90
             305.01,404.90 301.18,406.17 301.18,406.17
             296.64,408.03 289.56,411.65 284.77,411.72
             284.77,411.72 274.92,411.72 274.92,411.72
             274.92,411.72 277.34,409.55 277.34,409.55
             277.34,409.55 284.21,404.98 284.21,404.98
             284.21,404.98 285.26,400.79 285.26,400.79
             285.26,400.79 286.36,395.87 286.36,395.87
             286.36,395.87 285.35,390.40 285.35,390.40
             285.35,390.40 285.35,386.58 285.35,386.58
             285.35,386.58 284.22,379.47 284.22,379.47
             284.22,379.47 283.67,353.24 283.67,353.24
             279.78,355.64 277.18,355.99 272.73,355.97
             269.57,355.95 266.50,355.11 263.43,354.43
             261.19,353.94 260.54,353.52 258.50,352.70
             258.50,352.70 253.59,350.70 253.59,350.70
             252.01,349.77 251.09,348.71 249.81,347.48
             249.81,347.48 246.67,344.44 246.67,344.44
             243.97,341.19 240.44,332.83 239.44,328.64
             238.12,323.09 238.33,315.78 238.25,310.06
             238.25,310.06 236.08,298.58 236.08,298.58
             236.08,298.58 236.08,292.57 236.08,292.57
             236.08,292.57 234.97,284.37 234.97,284.37
             234.97,284.37 234.97,272.34 234.97,272.34
             234.98,265.21 236.47,264.79 237.02,261.91
             237.02,261.91 238.50,251.03 238.50,251.03
             238.50,251.03 239.69,246.11 239.69,246.11
             240.10,244.01 240.44,239.55 240.44,237.36
             240.46,229.78 239.46,229.42 239.40,226.98
             239.40,226.98 240.56,216.59 240.56,216.59
             240.56,216.59 241.97,209.49 241.97,209.49
             243.24,205.02 243.71,206.86 243.73,201.29
             243.73,201.29 240.99,201.29 240.99,201.29
             240.63,205.25 239.81,205.30 239.09,208.39
             237.78,214.02 236.52,222.32 236.62,228.07
             236.68,231.73 237.37,231.19 237.65,233.59
             237.91,235.89 237.38,241.56 236.99,243.92
             236.99,243.92 235.76,249.39 235.76,249.39
             235.76,249.39 235.34,253.21 235.34,253.21
             235.34,253.21 234.52,257.04 234.52,257.04
             234.52,257.04 234.18,260.32 234.18,260.32
             233.08,265.15 232.25,265.02 232.24,270.70
             232.24,270.70 232.24,285.46 232.24,285.46
             232.24,290.36 232.85,290.32 233.31,294.21
             233.31,294.21 233.31,299.67 233.31,299.67
             233.31,299.67 235.46,309.51 235.46,309.51
             235.46,309.51 235.46,319.35 235.46,319.35
             235.63,328.56 237.46,332.35 240.44,340.67
             240.44,340.67 233.88,341.90 233.88,341.90
             233.88,341.90 230.60,342.71 230.60,342.71
             230.60,342.71 226.76,343.03 226.76,343.03
             226.76,343.03 221.29,344.25 221.29,344.25
             221.29,344.25 215.27,344.75 215.27,344.75
             215.27,344.75 195.57,349.95 195.57,349.95
             195.57,349.95 184.63,348.52 184.63,348.52
             184.63,348.52 178.06,347.58 178.06,347.58
             178.06,347.58 167.67,343.95 167.67,343.95
             167.67,343.95 167.67,355.42 167.67,355.42
             167.67,355.42 169.86,372.91 169.86,372.91
             169.86,372.91 169.86,394.78 169.86,394.78
             169.85,396.09 169.97,397.89 169.30,399.05
             168.24,400.88 166.21,401.32 164.38,401.94
             164.38,401.94 161.10,403.23 161.10,403.23
             157.60,404.28 159.25,403.11 154.53,405.46
             151.12,407.16 150.16,409.34 146.33,410.08
             150.10,405.97 155.42,404.53 155.63,398.60
             150.13,399.10 149.94,401.32 140.85,401.34
             128.97,401.35 133.59,401.08 123.34,399.70
             127.05,394.86 132.07,395.27 137.57,394.68
             137.57,394.68 144.14,393.38 144.14,393.38
             145.96,393.08 150.22,393.00 151.47,391.72
             152.64,390.53 152.33,387.63 152.35,386.03
             152.35,386.03 154.08,367.45 154.08,367.45
             154.45,364.31 155.03,364.27 155.11,360.34
             155.11,360.34 155.11,356.02 155.11,356.02
             155.47,353.20 157.32,351.74 153.44,350.50
             152.71,345.27 148.92,345.85 144.69,344.84
             142.15,344.23 142.56,343.86 139.21,343.37
             136.81,343.01 130.23,341.45 128.32,340.21
             128.32,340.21 125.44,337.83 125.44,337.83
             125.44,337.83 119.28,333.78 119.28,333.78
             116.95,332.01 114.04,330.84 112.65,328.04
             112.65,328.04 110.87,323.18 110.87,323.18
             109.52,319.72 108.02,317.17 107.18,313.34
             107.18,313.34 106.77,309.51 106.77,309.51
             106.77,309.51 105.67,302.41 105.67,302.41
             104.22,292.59 103.63,292.02 103.65,281.64
             103.66,275.28 104.89,275.37 106.54,270.16
             106.54,270.16 108.47,263.05 108.47,263.05
             108.47,263.05 112.23,251.12 112.23,251.12
             113.59,248.39 118.85,242.62 120.91,239.99
             120.91,239.99 123.51,236.30 123.51,236.30
             125.62,233.51 127.12,233.90 127.72,230.26
             121.33,230.93 120.32,235.71 116.62,240.10
             115.29,241.67 110.14,247.89 109.36,249.41
             109.36,249.41 104.04,267.42 104.04,267.42
             102.40,273.19 100.92,272.81 100.91,280.00
             100.89,294.38 100.93,290.43 102.94,304.05
             102.94,304.05 104.52,315.52 104.52,315.52
             105.21,318.41 106.53,321.00 107.63,323.72
             107.63,323.72 110.38,331.09 110.38,331.09
             111.41,332.60 116.13,335.57 117.87,336.85
             117.87,336.85 123.17,340.22 123.17,340.22
             124.64,341.23 124.96,342.16 126.68,343.10
             130.52,345.19 135.05,345.46 139.21,346.42
             142.71,347.22 145.98,348.54 149.61,348.86
             146.26,350.19 144.47,348.96 141.40,348.39
             141.40,348.39 135.38,348.39 135.38,348.39
             130.40,348.25 126.64,345.83 122.25,344.09
             122.25,344.09 118.58,342.71 118.58,342.71
             118.58,342.71 115.13,340.97 115.13,340.97
             113.10,340.21 111.88,340.35 109.71,339.19
             109.71,339.19 91.06,328.64 91.06,328.64
             91.06,328.64 91.06,325.36 91.06,325.36
             85.74,324.98 84.81,321.14 82.11,317.16
             79.02,312.60 80.15,312.71 79.13,310.21
             77.79,306.94 76.29,303.68 75.41,300.22
             75.41,300.22 73.98,288.74 73.98,288.74
             73.47,285.16 73.01,286.94 73.00,281.64
             72.99,272.53 72.45,265.02 74.73,256.04
             75.99,251.05 78.36,248.17 80.81,243.90
             85.94,234.97 84.33,235.25 92.31,227.36
             92.31,227.36 99.27,221.44 99.27,221.44
             99.27,221.44 110.12,211.36 110.12,211.36
             113.30,208.85 117.72,207.18 119.51,203.48
             119.51,203.48 131.01,197.60 131.01,197.60
             131.01,197.60 138.71,193.66 138.71,193.66
             138.71,193.66 142.34,192.13 142.34,192.13
             142.34,192.13 147.58,187.90 147.58,187.90
             147.58,187.90 152.87,184.91 152.87,184.91
             152.87,184.91 157.82,180.52 157.82,180.52
             157.82,186.49 159.48,187.05 158.95,190.36
             158.15,195.41 153.33,203.03 151.08,207.85
             150.06,210.02 149.85,212.61 149.13,214.95
             149.13,214.95 146.35,222.06 146.35,222.06
             146.35,222.06 143.18,235.18 143.18,235.18
             143.18,235.18 141.36,241.19 141.36,241.19
             141.36,241.19 137.28,255.95 137.28,255.95
             137.28,255.95 133.99,265.24 133.99,265.24
             133.99,265.24 132.68,272.87 132.68,272.87
             131.87,275.36 130.76,275.56 129.92,277.28
             129.25,278.65 129.33,280.67 129.37,282.18
             129.47,286.02 131.15,288.52 132.48,292.02
             135.47,299.89 140.01,306.75 144.43,313.88
             145.98,316.39 146.46,322.40 149.64,323.36
             151.61,323.96 153.59,322.02 154.92,320.80
             156.83,319.05 165.02,309.49 166.29,307.32
             166.29,307.32 171.12,299.95 171.12,299.95
             171.12,299.95 174.46,295.75 174.46,295.75
             174.46,295.75 180.26,286.55 180.26,286.55
             180.26,286.55 184.35,281.09 184.35,281.09
             184.35,281.09 187.70,275.63 187.70,275.63
             187.70,275.63 191.01,271.64 191.01,271.64
             191.01,271.64 193.72,267.66 193.72,267.66
             193.72,267.66 202.31,254.81 202.31,254.81
             202.31,254.81 205.10,250.94 205.10,250.94
             205.57,249.74 205.44,245.42 205.42,243.92
             205.38,240.44 204.94,240.48 204.15,237.36
             201.97,228.79 200.88,226.26 197.30,218.23
             197.30,218.23 195.13,213.86 195.13,213.86
             195.13,213.86 192.11,203.48 192.11,203.48
             191.85,202.29 190.85,196.71 191.02,195.84
             191.29,194.50 192.53,193.28 193.19,191.95
             193.95,190.44 193.83,189.24 195.57,188.72
             195.57,188.72 194.48,176.69 194.48,176.69
             194.48,176.69 191.74,176.69 191.74,176.69
             191.74,176.69 191.11,181.07 191.11,181.07
             191.24,184.02 192.31,185.12 191.11,188.72
             189.46,192.83 186.72,193.36 187.28,196.22
             187.28,196.22 188.52,200.20 188.52,200.20
             188.52,200.20 189.29,205.12 189.29,205.12
             189.29,205.12 192.39,215.50 192.39,215.50
             192.39,215.50 194.63,220.10 194.63,220.10
             197.95,227.27 199.47,231.36 201.41,239.00
             202.07,241.62 202.60,242.14 202.68,245.02
             202.82,250.25 201.72,249.62 199.09,253.76
             199.09,253.76 190.69,266.22 190.69,266.22
             190.69,266.22 185.02,273.60 185.02,273.60
             185.02,273.60 181.23,280.00 181.23,280.00
             181.23,280.00 177.81,284.37 177.81,284.37
             177.81,284.37 174.88,289.13 174.88,289.13
             174.88,289.13 168.10,298.58 168.10,298.58
             168.10,298.58 162.41,307.32 162.41,307.32
             160.38,310.21 152.87,318.50 150.16,320.44
             150.16,320.44 148.05,313.49 148.05,313.49
             148.05,313.49 142.04,304.05 142.04,304.05
             142.04,304.05 136.42,293.66 136.42,293.66
             136.42,293.66 135.08,289.83 135.08,289.83
             134.08,287.26 132.29,284.35 132.16,281.64
             131.98,277.93 134.12,278.43 135.31,275.07
             136.52,271.65 136.23,269.03 136.73,266.88
             136.73,266.88 140.02,257.59 140.02,257.59
             140.02,257.59 144.18,242.83 144.18,242.83
             144.18,242.83 146.00,236.82 146.00,236.82
             146.00,236.82 147.75,228.62 147.75,228.62
             147.75,228.62 149.70,222.06 149.70,222.06
             149.70,222.06 151.59,217.69 151.59,217.69
             151.59,217.69 153.13,211.28 153.13,211.28
             153.13,211.28 154.78,207.84 154.78,207.84
             157.28,202.70 160.75,197.73 161.65,192.00
             161.65,192.00 169.86,195.58 169.86,195.58
             169.86,195.58 175.88,195.98 175.88,195.98
             175.88,195.98 184.08,196.92 184.08,196.92
             184.08,196.92 184.08,194.18 184.08,194.18
             184.08,194.18 177.52,193.11 177.52,193.11
             177.52,193.11 172.59,193.11 172.59,193.11
             170.09,192.63 165.14,190.88 163.85,188.62
             163.34,187.73 163.37,186.96 163.29,185.98
             163.29,185.98 161.65,185.98 161.65,185.98
             160.45,180.36 160.54,182.11 160.55,176.15
             160.56,172.00 160.89,171.66 162.74,167.96
             163.38,166.68 163.87,165.37 165.54,165.41
             167.98,165.46 172.56,168.73 174.94,169.69
             176.52,170.33 177.86,169.99 179.71,170.44
             179.71,170.44 182.99,171.52 182.99,171.52
             182.99,171.52 186.27,171.98 186.27,171.98
             186.27,171.98 190.10,173.13 190.10,173.13
             190.10,173.13 193.93,173.53 193.93,173.53
             193.93,173.53 201.05,175.15 201.05,175.15
             201.05,175.15 208.16,177.14 208.16,177.14
             220.20,178.64 232.16,178.36 244.27,178.33
             249.69,178.32 247.58,177.77 251.94,176.57
             251.94,176.57 265.59,172.35 265.59,172.35
             265.59,172.35 272.73,168.49 272.73,168.49
             270.59,176.94 261.28,176.74 254.68,179.42
             254.68,179.42 247.56,183.50 247.56,183.50
             242.06,186.36 234.62,189.25 228.41,189.26
             228.41,189.26 214.18,189.26 214.18,189.26
             207.07,189.18 204.42,187.36 198.31,186.53
             198.31,186.53 198.31,189.81 198.31,189.81
             202.82,190.03 205.46,191.96 213.08,192.00
             213.08,192.00 230.05,192.00 230.05,192.00
             237.48,191.99 244.18,188.52 250.84,185.60
             250.84,185.60 253.97,184.40 253.97,184.40
             257.23,182.76 256.80,182.66 260.69,181.20
             268.01,178.45 271.12,179.03 277.39,172.80
             279.00,171.20 280.82,166.32 278.03,164.92
             275.74,163.77 269.45,166.50 267.26,167.57
             267.26,167.57 254.12,174.16 254.12,174.16
             254.12,174.16 250.29,174.75 250.29,174.75
             247.07,175.46 247.87,175.59 244.27,175.60
             232.78,175.62 221.20,176.05 209.80,174.39
             209.80,174.39 203.24,172.50 203.24,172.50
             203.24,172.50 196.12,170.82 196.12,170.82
             196.12,170.82 191.74,170.39 191.74,170.39
             191.74,170.39 187.91,169.25 187.91,169.25
             187.91,169.25 184.63,168.77 184.63,168.77
             184.63,168.77 181.35,167.63 181.35,167.63
             181.35,167.63 177.52,167.10 177.52,167.10
             176.39,166.76 175.30,166.05 174.23,165.53
             168.25,162.60 162.19,159.39 158.37,153.74
             158.37,153.74 179.64,145.34 179.64,145.34
             179.64,145.34 182.56,142.74 182.56,142.74
             182.56,142.74 189.87,137.25 189.87,137.25
             194.12,133.98 197.52,132.05 200.55,127.35
             200.55,127.35 202.22,123.68 202.22,123.68
             205.33,116.26 203.56,110.57 198.67,104.41
             197.27,102.64 195.81,100.77 193.93,99.50
             192.11,98.27 185.16,95.68 182.99,95.31
             182.99,95.31 176.42,95.31 176.42,95.31
             176.42,95.31 183.54,98.78 183.54,98.78
             186.38,99.84 190.60,100.73 192.83,102.80
             193.95,103.84 196.49,107.07 197.40,108.39
             198.63,110.19 199.52,111.76 200.21,113.84
             202.21,119.82 197.75,126.70 193.36,130.54
             193.36,130.54 186.66,135.52 186.66,135.52
             186.66,135.52 180.32,140.17 180.32,140.17
             180.32,140.17 177.39,142.62 177.39,142.62
             175.32,143.97 167.61,146.89 164.93,147.90
             164.93,147.90 159.46,150.00 159.46,150.00
             154.36,151.24 148.81,151.08 143.59,151.64
             143.59,151.64 135.38,152.64 135.38,152.64
             130.58,152.70 125.92,152.72 121.16,152.10
             121.16,152.10 121.16,166.31 121.16,166.31
             121.16,166.31 122.25,176.15 122.25,176.15
             122.27,184.98 123.47,188.58 121.16,197.46
             121.16,197.46 117.87,196.37 117.87,196.37
             117.87,196.37 115.16,185.44 115.16,185.44
             115.16,185.44 115.66,179.43 115.66,179.43
             115.66,179.43 115.66,170.13 115.66,170.13
             115.66,170.13 112.95,170.13 112.95,170.13
             112.95,175.09 111.98,184.41 111.05,189.26
             111.05,189.26 109.87,193.64 109.87,193.64
             109.37,196.01 108.82,200.62 106.28,201.76
             104.16,202.72 101.32,199.63 99.99,198.24
             95.72,193.74 97.08,182.23 97.08,176.15
             97.08,176.15 94.29,176.15 94.29,176.15
             94.29,176.15 94.29,182.71 94.29,182.71
             94.29,182.71 92.54,188.72 92.54,188.72
             91.34,193.18 91.20,195.71 88.85,200.04
             86.60,204.21 83.68,208.00 79.40,202.76
             76.42,199.13 77.33,196.66 77.43,192.54
             77.43,192.54 77.43,183.25 77.43,183.25
             77.86,180.06 78.96,178.97 79.12,173.96
             79.04,172.27 78.92,169.50 79.12,167.95
             79.12,167.95 81.21,161.39 81.21,161.39
             81.21,161.39 91.06,160.56 91.06,160.56
             91.06,160.56 99.82,157.30 99.82,157.30
             99.82,157.30 110.76,156.40 110.76,156.40
             110.76,156.40 118.42,155.38 118.42,155.38
             116.82,150.38 111.33,153.68 106.93,153.73
             103.88,153.78 100.59,153.79 97.63,154.63
             97.63,154.63 87.78,158.21 87.78,158.21
             84.51,158.93 76.73,158.66 73.00,158.66
             74.24,156.22 76.55,156.07 79.02,155.23
             79.02,155.23 85.59,152.45 85.59,152.45
             85.59,152.45 91.61,150.80 91.61,150.80
             91.61,150.80 99.27,148.40 99.27,148.40
             99.27,148.40 106.38,145.69 106.38,145.69
             106.38,145.69 118.97,142.58 118.97,142.58
             118.97,142.58 122.80,141.89 122.80,141.89
             122.80,141.89 132.10,138.60 132.10,138.60
             136.28,137.42 138.02,138.33 143.59,136.37
             145.48,135.70 152.51,133.06 153.43,131.65
             155.40,128.61 150.50,122.12 148.42,121.27
             147.46,120.87 145.74,120.94 144.69,120.94
             144.69,120.94 114.04,120.94 114.04,120.94
             108.38,120.95 106.17,121.98 100.91,122.81
             100.91,122.81 94.89,123.23 94.89,123.23
             94.89,123.23 90.51,124.12 90.51,124.12
             90.51,124.12 81.76,124.86 81.76,124.86
             78.67,125.21 78.68,125.81 74.64,125.86
             70.07,125.91 65.42,126.20 60.96,127.37
             56.24,128.61 51.68,130.66 46.74,130.77
             46.74,130.77 38.53,130.24 38.53,130.24
             38.53,130.24 24.30,130.24 24.30,130.24
             23.27,130.23 21.53,130.28 20.60,129.83
             17.06,128.13 22.41,121.59 23.90,119.84
             26.79,116.45 30.69,114.02 34.31,111.51
             37.77,109.10 41.55,106.39 45.66,105.18
             49.90,103.93 52.13,104.25 54.40,103.75
             54.40,103.75 66.89,100.43 66.89,100.43
             66.89,100.43 69.77,99.19 69.77,99.19
             69.77,99.19 75.19,98.15 75.19,98.15
             75.19,98.15 80.12,96.53 80.12,96.53
             82.06,96.16 83.12,96.45 86.14,95.64
             86.14,95.64 97.08,92.55 97.08,92.55
             101.69,90.89 103.88,89.42 109.12,89.36
             112.30,89.33 112.55,91.40 116.78,91.95
             116.78,91.95 122.25,91.95 122.25,91.95
             122.25,91.95 133.74,93.07 133.74,93.07
             133.74,93.07 144.14,93.07 144.14,93.07
             139.78,100.73 133.94,95.53 128.69,100.62
             126.99,102.27 126.81,102.80 126.63,105.09
             129.49,104.70 129.42,104.05 132.65,104.00
             135.28,103.96 138.57,104.42 140.85,102.97
             143.68,101.15 144.77,97.36 147.25,95.13
             149.44,93.14 150.92,94.10 152.89,89.24
             152.89,89.24 141.95,90.31 141.95,90.31
             141.95,90.31 133.19,90.31 133.19,90.31
             133.19,90.31 123.89,89.29 123.89,89.29
             119.97,89.02 113.42,90.24 113.53,84.32
             113.55,83.21 113.75,82.62 114.04,81.59
             114.04,81.59 114.59,85.96 114.59,85.96
             114.59,85.96 122.71,86.64 122.71,86.64
             122.71,86.64 128.82,87.60 128.82,87.60
             128.82,87.60 151.80,87.60 151.80,87.60
             151.79,86.06 151.96,84.11 150.92,82.85
             149.96,81.69 147.24,80.95 145.78,80.54
             141.11,79.21 138.64,78.33 133.74,78.31
             133.74,78.31 122.25,77.22 122.25,77.22
             127.22,73.61 131.26,74.48 137.02,74.48
             141.89,74.48 152.51,74.14 156.72,74.92
             160.31,75.59 163.90,75.58 166.57,78.31
             164.74,79.74 164.50,79.89 163.84,82.14
             160.38,83.12 156.53,85.27 156.15,89.24
             156.04,90.39 156.10,91.37 156.94,92.24
             158.57,93.91 163.23,94.14 165.48,94.16
             165.64,91.46 165.84,90.73 167.67,88.69
             166.19,86.34 167.80,85.84 169.86,84.87
             171.58,87.43 175.84,86.51 178.61,86.51
             188.42,86.51 189.99,86.86 199.95,84.98
             203.45,84.31 206.39,84.53 207.07,80.50
             207.07,80.50 191.74,79.40 191.74,79.40
             191.74,79.40 183.54,79.40 183.54,79.40
             183.54,79.40 173.14,81.59 173.14,81.59
             173.14,81.59 172.59,78.86 172.59,78.86
             177.09,76.87 178.37,75.60 183.54,75.58
             183.54,75.58 205.42,75.58 205.42,75.58
             208.51,75.58 218.18,75.77 217.76,80.48
             217.62,82.03 216.26,82.94 215.16,83.84
             211.87,86.54 211.56,87.46 207.07,88.36
             199.05,89.96 180.60,89.24 171.50,89.24
             171.50,89.24 168.76,94.16 168.76,94.16
             168.76,94.16 172.05,94.71 172.05,94.71
             172.05,94.71 172.05,92.52 172.05,92.52
             172.05,92.52 179.16,91.97 179.16,91.97
             186.62,91.96 200.34,92.49 207.07,91.38
             208.47,91.15 210.73,90.85 211.99,90.33
             214.26,89.42 219.64,84.94 220.56,82.67
             224.03,74.09 212.69,72.85 207.07,72.84
             207.07,72.84 181.35,72.84 181.35,72.84
             175.47,72.87 175.99,74.33 170.95,75.58
             172.59,70.50 180.32,62.71 183.93,58.40
             183.93,58.40 198.80,40.32 198.80,40.32
             198.80,40.32 200.75,37.41 200.75,37.41
             203.57,33.87 210.46,26.93 214.18,24.50
             219.56,20.98 220.28,21.83 225.67,20.60
             227.55,20.17 233.16,19.24 234.90,19.61
             236.56,19.95 236.92,22.21 237.71,23.65 Z
           M 162.20,161.94
           C 162.20,161.94 158.09,170.68 158.09,170.68
             157.56,172.69 158.21,174.23 156.94,176.10
             156.28,177.08 154.96,178.08 154.10,178.96
             148.98,184.23 151.23,181.63 145.78,185.19
             145.78,185.19 140.81,189.15 140.81,189.15
             140.81,189.15 124.99,196.92 124.99,196.92
             124.99,196.92 125.53,189.26 125.53,189.26
             125.53,189.26 124.99,179.97 124.99,179.97
             124.99,179.97 124.99,173.41 124.99,173.41
             124.99,173.41 123.89,164.67 123.89,164.67
             123.89,164.67 123.89,155.38 123.89,155.38
             123.89,155.38 140.85,155.05 140.85,155.05
             143.19,154.69 152.10,153.31 153.87,154.06
             156.16,155.04 157.40,159.71 162.20,161.94 Z
           M 345.51,180.52
           C 345.51,180.52 345.51,181.07 345.51,181.07
             345.51,181.07 344.96,180.52 344.96,180.52
             344.96,180.52 345.51,180.52 345.51,180.52 Z
           M 150.16,349.41
           C 150.16,349.41 150.16,349.96 150.16,349.96
             150.16,349.96 149.61,349.41 149.61,349.41
             149.61,349.41 150.16,349.41 150.16,349.41 Z
           M 147.97,403.52
           C 147.97,403.52 147.97,404.07 147.97,404.07
             147.97,404.07 147.42,403.52 147.42,403.52
             147.42,403.52 147.97,403.52 147.97,403.52 Z
           M 311.03,405.71
           C 311.03,405.71 311.03,406.25 311.03,406.25
             311.03,406.25 310.49,405.71 310.49,405.71
             310.49,405.71 311.03,405.71 311.03,405.71 Z
           M 310.49,406.25
           C 310.49,406.25 310.49,406.80 310.49,406.80
             310.49,406.80 309.94,406.25 309.94,406.25
             309.94,406.25 310.49,406.25 310.49,406.25 Z
           M 309.94,406.80
           C 307.97,408.79 307.20,409.37 304.47,410.08
             306.27,407.83 307.11,407.34 309.94,406.80 Z
           M 304.47,410.08
           C 304.47,410.08 304.47,410.63 304.47,410.63
             304.47,410.63 303.92,410.08 303.92,410.08
             303.92,410.08 304.47,410.08 304.47,410.08 Z
           M -70.24,179.27" />
</svg>
