<?xml version="1.0" encoding="UTF-8" standalone="no"?>
<!DOCTYPE svg PUBLIC "-//W3C//DTD SVG 20010904//EN"
              "http://www.w3.org/TR/2001/REC-SVG-20010904/DTD/svg10.dtd">

<svg xmlns="http://www.w3.org/2000/svg"
     width="135.478mm" height="101.609mm"
     viewBox="0 0 640 480">
  <path id="Selection #1"
        fill="none" stroke="black" stroke-width="1"
        d="M 355.00,189.00
           C 355.00,189.00 353.00,189.00 353.00,189.00
             348.87,176.05 333.30,169.82 321.00,167.21
             311.70,165.23 291.06,164.95 281.00,165.00
             275.13,165.03 261.93,168.63 257.00,171.66
             257.00,171.66 245.00,180.45 245.00,180.45
             241.79,182.37 239.53,182.05 236.09,184.29
             232.34,186.72 229.14,191.95 227.36,196.00
             226.53,197.88 225.84,201.04 224.42,202.40
             222.07,204.64 218.72,203.51 215.00,204.65
             212.22,205.50 200.39,212.63 198.23,214.68
             193.69,218.96 195.84,222.01 194.42,225.91
             193.07,229.61 190.71,229.62 190.11,235.00
             189.55,239.97 190.79,246.41 186.69,250.20
             185.25,251.54 182.72,252.68 181.00,253.79
             181.00,253.79 163.65,266.32 163.65,266.32
             159.56,271.24 161.62,277.00 154.52,284.06
             148.22,290.34 141.67,287.52 139.62,293.11
             137.72,298.27 143.27,301.16 147.00,303.00
             139.90,310.62 148.64,314.16 155.00,317.00
             153.56,318.31 152.00,319.56 150.89,321.18
             145.36,329.20 152.07,335.26 154.60,342.00
             156.24,346.37 154.61,348.73 155.21,353.00
             155.86,357.55 158.78,361.78 162.04,364.90
             165.92,368.61 174.82,373.24 180.00,374.91
             186.84,377.11 190.65,375.28 196.24,382.30
             200.30,387.39 211.36,407.60 210.80,413.96
             210.31,419.49 206.18,417.66 206.00,427.00
             205.91,432.28 206.60,445.54 199.81,447.51
             196.77,448.40 190.52,442.29 188.00,440.35
             177.59,432.35 160.98,429.78 153.42,423.78
             140.90,413.85 139.52,399.67 129.52,388.51
             129.52,388.51 102.79,360.38 102.79,360.38
             102.79,360.38 97.00,356.37 97.00,356.37
             97.00,356.37 88.04,348.83 88.04,348.83
             88.04,348.83 75.96,335.47 75.96,335.47
             75.96,335.47 53.00,319.91 53.00,319.91
             53.00,319.91 45.55,311.63 45.55,311.63
             43.07,309.34 39.58,308.24 36.76,304.70
             32.18,298.96 30.49,283.68 16.00,286.23
             9.91,287.30 5.94,294.27 5.21,300.00
             4.80,303.22 6.02,309.13 10.69,307.34
             14.27,305.97 13.36,294.18 18.67,294.69
             23.50,295.16 25.78,303.58 27.65,307.00
             31.28,313.65 34.22,313.87 38.91,318.21
             38.91,318.21 47.01,326.87 47.01,326.87
             47.01,326.87 69.91,341.68 69.91,341.68
             75.18,346.06 75.99,349.58 80.13,353.57
             80.13,353.57 91.00,362.65 91.00,362.65
             91.00,362.65 96.63,366.63 96.63,366.63
             96.63,366.63 102.10,372.91 102.10,372.91
             102.10,372.91 121.83,393.42 121.83,393.42
             134.78,407.15 132.58,419.23 147.00,430.15
             153.24,434.88 168.05,438.91 176.00,443.08
             176.00,443.08 193.00,455.02 193.00,455.02
             196.33,456.52 202.88,456.47 205.96,454.40
             214.98,448.34 213.00,434.37 213.00,425.00
             218.08,423.31 217.93,420.96 218.00,416.00
             218.23,399.09 213.22,395.13 206.00,381.00
             215.82,385.63 225.20,389.10 236.00,390.58
             238.69,390.94 245.06,391.94 246.34,388.70
             247.23,386.49 245.81,384.96 243.85,384.23
             243.85,384.23 228.00,380.73 228.00,380.73
             228.00,380.73 203.00,370.63 203.00,370.63
             203.00,370.63 188.00,368.53 188.00,368.53
             183.11,367.59 171.82,361.86 168.10,358.61
             160.54,352.01 164.26,345.84 162.37,339.00
             161.55,336.04 158.18,330.34 158.28,328.00
             158.37,325.68 160.11,324.02 161.00,322.00
             163.52,316.33 161.99,312.17 157.00,309.00
             161.56,300.33 157.14,300.18 152.00,295.00
             158.83,293.55 163.63,288.25 166.41,282.00
             168.32,277.70 168.39,273.92 172.21,270.55
             172.21,270.55 187.09,260.19 187.09,260.19
             190.21,258.29 193.72,257.37 195.49,253.82
             197.68,249.43 196.52,242.14 197.31,239.09
             198.14,235.91 200.32,234.92 201.41,231.96
             202.46,229.08 201.44,226.04 203.02,223.29
             206.38,217.44 218.45,211.37 225.00,211.00
             225.01,213.16 224.88,215.97 225.58,218.00
             227.41,223.30 235.05,228.72 240.00,230.95
             248.73,234.87 258.72,235.09 268.00,236.43
             285.17,238.90 278.84,241.00 301.00,241.00
             301.26,242.50 301.22,243.93 302.60,244.97
             306.02,247.58 317.43,240.81 321.00,239.00
             321.00,239.00 319.02,246.00 319.02,246.00
             319.02,246.00 319.02,254.00 319.02,254.00
             319.02,254.00 316.18,264.00 316.18,264.00
             315.16,272.21 316.21,280.05 318.00,288.00
             318.00,288.00 300.00,288.00 300.00,288.00
             300.00,288.00 285.00,290.90 285.00,290.90
             285.00,290.90 275.00,292.52 275.00,292.52
             275.00,292.52 263.00,296.30 263.00,296.30
             263.00,296.30 232.00,303.00 232.00,303.00
             230.88,299.62 228.11,296.71 224.31,299.04
             222.28,300.29 221.42,303.85 220.50,306.00
             220.50,306.00 212.61,322.00 212.61,322.00
             211.75,324.11 210.38,327.17 212.61,328.98
             214.01,330.12 217.26,330.03 219.00,329.96
             219.00,329.96 235.00,329.00 235.00,329.00
             248.14,328.84 250.09,326.22 258.00,325.00
             258.00,325.00 270.00,323.57 270.00,323.57
             270.00,323.57 291.00,320.17 291.00,320.17
             291.00,320.17 307.00,318.82 307.00,318.82
             307.00,318.82 322.00,315.10 322.00,315.10
             322.00,315.10 338.00,315.10 338.00,315.10
             338.00,315.10 366.00,313.00 366.00,313.00
             366.00,313.00 382.00,313.00 382.00,313.00
             389.91,313.01 397.23,314.70 405.00,315.92
             405.00,315.92 416.00,315.92 416.00,315.92
             416.00,315.92 423.00,317.74 423.00,317.74
             423.00,317.74 455.00,319.92 455.00,319.92
             455.00,319.92 463.00,319.92 463.00,319.92
             463.00,319.92 480.96,317.40 480.96,317.40
             484.45,318.06 489.31,326.16 492.97,321.40
             495.18,318.53 491.97,312.67 490.52,310.00
             486.46,302.48 479.57,289.33 472.57,284.56
             468.09,281.51 462.68,283.76 467.00,292.00
             467.00,292.00 438.00,283.62 438.00,283.62
             438.00,283.62 412.00,282.00 412.00,282.00
             412.00,282.00 400.00,281.04 400.00,281.04
             400.00,281.04 386.00,281.04 386.00,281.04
             391.67,269.53 391.08,260.39 391.00,248.00
             390.98,245.86 391.13,243.21 389.98,241.33
             388.65,239.14 386.19,238.09 384.00,237.00
             384.00,248.58 385.37,266.31 378.44,276.00
             366.92,292.11 355.39,295.54 337.00,288.65
             331.48,286.59 328.07,286.78 325.14,280.98
             320.22,271.26 324.99,265.32 325.79,260.00
             326.72,253.81 325.02,250.49 329.25,243.09
             331.32,239.48 339.15,230.01 339.77,227.00
             340.19,225.00 338.39,218.74 338.00,216.00
             338.00,216.00 306.00,232.73 306.00,232.73
             295.39,235.77 288.05,232.15 278.00,230.26
             267.06,228.21 255.42,228.32 245.00,223.90
             240.91,222.16 234.05,217.34 232.64,213.00
             230.87,207.58 235.56,196.77 240.10,193.60
             242.17,192.16 243.64,192.19 246.00,192.00
             246.00,195.23 245.59,201.24 247.02,203.98
             248.98,207.74 252.46,208.78 256.00,210.49
             267.51,216.07 282.39,214.03 295.00,214.00
             297.13,214.00 300.01,214.12 302.00,213.41
             311.07,210.17 314.38,201.40 316.33,193.00
             318.17,185.09 319.35,181.59 315.00,174.00
             325.72,176.16 347.20,185.06 347.50,198.00
             347.67,205.39 342.43,208.76 341.23,213.00
             340.21,216.61 342.44,221.78 344.00,225.00
             344.00,225.00 353.00,220.06 353.00,220.06
             353.00,220.06 371.00,226.00 371.00,226.00
             371.00,226.00 374.00,212.00 374.00,212.00
             374.00,212.00 354.00,205.00 354.00,205.00
             358.09,197.29 368.62,182.17 376.00,177.93
             377.97,176.80 379.83,176.46 382.00,176.00
             380.76,177.87 380.01,178.73 379.42,181.00
             378.03,186.33 378.24,197.94 383.11,201.40
             386.55,203.85 390.00,202.40 395.00,203.60
             407.42,206.56 408.30,206.16 421.00,206.00
             438.28,205.77 447.37,187.40 443.00,172.00
             452.74,172.12 450.23,173.80 457.00,175.53
             460.05,176.31 461.38,175.71 465.00,177.13
             476.51,181.65 480.12,189.25 480.00,201.00
             479.96,204.19 479.74,208.03 478.35,210.96
             476.76,214.30 472.89,216.68 470.00,218.98
             460.15,226.77 450.63,230.94 438.00,230.91
             438.00,230.91 426.00,230.91 426.00,230.91
             419.06,229.99 403.80,225.72 397.00,223.31
             390.39,220.97 381.40,215.61 376.00,215.00
             375.33,218.56 373.18,225.54 375.03,228.68
             377.11,232.23 381.41,233.22 385.00,234.36
             385.00,234.36 393.00,237.96 393.00,237.96
             393.00,237.96 405.00,242.40 405.00,242.40
             407.65,243.44 412.01,245.33 414.85,244.65
             419.20,243.61 417.35,239.62 416.00,237.00
             423.43,238.33 427.62,238.00 435.00,238.00
             452.07,238.00 459.70,237.96 474.00,226.99
             483.07,220.03 485.38,220.98 487.00,209.00
             493.16,212.05 511.41,220.89 516.00,224.52
             522.23,229.45 526.80,237.57 531.58,244.00
             531.58,244.00 545.67,262.17 545.67,262.17
             545.67,262.17 550.52,276.00 550.52,276.00
             555.28,285.49 564.57,298.86 571.44,307.00
             575.84,312.21 580.97,318.86 588.00,320.00
             583.87,328.19 583.96,334.15 575.96,340.61
             570.02,345.40 563.90,343.78 559.00,345.93
             559.00,345.93 541.00,358.52 541.00,358.52
             531.53,365.98 526.77,374.76 518.91,382.99
             512.47,389.74 508.26,390.70 503.09,395.32
             498.76,399.19 498.84,401.02 493.00,404.50
             480.94,411.68 466.55,412.00 453.00,412.00
             453.00,412.00 412.00,412.00 412.00,412.00
             408.79,412.01 397.99,411.94 396.66,415.30
             395.36,418.56 398.49,419.72 401.02,419.94
             401.02,419.94 418.00,419.00 418.00,419.00
             418.00,419.00 469.00,419.00 469.00,419.00
             489.41,418.97 511.48,406.58 525.96,392.83
             532.19,386.92 536.29,379.83 544.00,373.46
             544.00,373.46 587.63,345.20 587.63,345.20
             587.63,345.20 602.00,329.17 602.00,329.17
             602.00,329.17 610.05,320.21 610.05,320.21
             610.05,320.21 616.72,315.37 616.72,315.37
             616.72,315.37 623.01,309.54 623.01,309.54
             627.08,306.64 634.04,305.53 635.15,301.81
             635.71,300.76 635.64,299.51 635.15,298.60
             632.42,295.18 624.93,299.14 622.00,300.36
             614.23,303.59 616.40,303.66 610.83,308.63
             604.86,313.97 602.28,314.02 598.00,322.00
             597.36,320.00 596.76,316.98 595.41,315.43
             592.85,312.50 590.81,314.20 584.80,308.40
             578.85,302.64 570.49,291.97 566.04,285.00
             566.04,285.00 556.38,268.00 556.38,268.00
             556.38,268.00 552.53,256.17 552.53,256.17
             552.53,256.17 538.31,238.00 538.31,238.00
             532.42,230.72 530.48,225.56 522.58,218.39
             522.58,218.39 499.00,205.18 499.00,205.18
             496.10,203.76 491.60,202.53 489.31,200.36
             486.22,197.44 487.28,193.80 486.82,190.00
             486.40,186.55 484.80,181.92 482.87,179.04
             480.19,175.05 473.60,170.98 469.00,169.63
             469.00,169.63 462.00,168.37 462.00,168.37
             462.00,168.37 455.00,165.63 455.00,165.63
             450.98,164.48 439.39,163.01 435.00,163.00
             417.84,162.97 399.71,162.68 383.00,167.14
             378.64,168.31 373.97,168.77 370.00,171.08
             364.91,174.05 357.32,183.56 355.00,189.00 Z
           M 383.00,175.00
           C 383.00,175.00 383.00,176.00 383.00,176.00
             383.00,176.00 382.00,175.00 382.00,175.00
             382.00,175.00 383.00,175.00 383.00,175.00 Z
           M 322.00,238.00
           C 322.00,238.00 322.00,239.00 322.00,239.00
             322.00,239.00 321.00,238.00 321.00,238.00
             321.00,238.00 322.00,238.00 322.00,238.00 Z" />
</svg>
